HIERARCHY
ROOT Elbow
{
	OFFSET	0.00	0.00	0.00
	CHANNELS 6 Xposition Yposition Zposition Zrotation Xrotation Yrotation
	JOINT L_Wrist
	{
		OFFSET	 0.208349	 0.000000	 0.000000
		CHANNELS 3 Zrotation Xrotation Yrotation
		JOINT L_index_Proximal
		{
			OFFSET	 0.093499	 0.010637	-0.002084
			CHANNELS 3 Zrotation Xrotation Yrotation
			JOINT L_index_b
			{
				OFFSET	 0.033153	 0.000000	 0.000000
				CHANNELS 3 Zrotation Xrotation Yrotation
				JOINT L_index_c
				{
					OFFSET	 0.018651	 0.000000	 0.000000
					CHANNELS 3 Zrotation Xrotation Yrotation
					End Site
					{
						OFFSET	 0.018651	 0.000000	 0.000000
					}
				}
			}
		}
		JOINT L_middle_Proximal
		{
			OFFSET	 0.090632	-0.006115	-0.003750
			CHANNELS 3 Zrotation Xrotation Yrotation
			JOINT L_middle_b
			{
				OFFSET	 0.037194	 0.000000	 0.000000
				CHANNELS 3 Zrotation Xrotation Yrotation
				JOINT L_middle_c
				{
					OFFSET	 0.021943	 0.000000	 0.000000
					CHANNELS 3 Zrotation Xrotation Yrotation
					End Site
					{
						OFFSET	 0.021943	 0.000000	 0.000000
					}
				}
			}
		}
		JOINT L_pinky_Proximal
		{
			OFFSET	 0.074015	-0.035449	-0.000417
			CHANNELS 3 Zrotation Xrotation Yrotation
			JOINT L_pinky_b
			{
				OFFSET	 0.027285	 0.000000	 0.000000
				CHANNELS 3 Zrotation Xrotation Yrotation
				JOINT L_pinky_c
				{
					OFFSET	 0.015093	 0.000000	 0.000000
					CHANNELS 3 Zrotation Xrotation Yrotation
					End Site
					{
						OFFSET	 0.015093	 0.000000	 0.000000
					}
				}
			}
		}
		JOINT L_ring_Proximal
		{
			OFFSET	 0.082801	-0.021859	-0.003750
			CHANNELS 3 Zrotation Xrotation Yrotation
			JOINT L_ring_b
			{
				OFFSET	 0.034478	 0.000000	 0.000000
				CHANNELS 3 Zrotation Xrotation Yrotation
				JOINT L_ring_c
				{
					OFFSET	 0.021377	 0.000000	 0.000000
					CHANNELS 3 Zrotation Xrotation Yrotation
					End Site
					{
						OFFSET	 0.021377	 0.000000	 0.000000
					}
				}
			}
		}
		JOINT L_thumb_Proximal
		{
			OFFSET	 0.030306	 0.018528	 0.004584
			CHANNELS 3 Zrotation Xrotation Yrotation
			JOINT L_thumb_a
			{
				OFFSET	 0.038520	 0.000000	 0.000000
				CHANNELS 3 Zrotation Xrotation Yrotation
				JOINT L_thumb_b
				{
					OFFSET	 0.026310	 0.000000	 0.000000
					CHANNELS 3 Zrotation Xrotation Yrotation
					End Site
					{
						OFFSET	 0.026310	 0.000000	 0.000000
					}
				}
			}
		}
	}
}
MOTION
Frames:    17
Frame Time: 0.01666667
 0.185127	-0.200350	 0.730802	-26.611840	 51.919910	 129.860400	-6.181878	 1.619117	 9.224805	-2.733905	 0.736730	-25.597450	-0.122185	 0.028571	-26.321380	-2.504042	 0.482060	-21.790260	-10.491270	-8.201662	-32.844670	 2.331102	-0.949149	-44.304630	-2.898733	 1.004758	-38.227960	-28.669920	-19.296320	-28.885760	 2.604744	-0.945780	-39.906590	-2.162972	 0.900556	-45.205250	-18.618880	-11.504100	-32.676040	 1.754952	-0.678867	-42.293330	-4.875465	 1.759164	-39.661870	 45.432360	 60.820980	-20.952230	-4.929697	 0.218116	-5.063406	 0.914329	-0.117650	-14.663600
 0.179968	-0.200346	 0.733914	-25.215910	 52.959770	 127.668500	-6.055131	 1.669265	 9.514838	-4.768870	 1.635931	-29.060670	-2.989022	 0.987246	-36.112710	-3.752450	 1.113666	-32.268140	-9.980621	-8.237439	-40.367810	-0.973551	 0.461997	-58.886010	-7.877843	 2.532280	-38.154190	-29.865790	-18.684320	-33.366240	 2.799402	-1.204064	-46.574770	-2.947985	 1.226591	-45.756120	-18.426340	-11.452380	-36.657880	 3.142247	-1.444829	-49.157290	-3.737770	 1.421861	-41.301250	 43.455250	 61.724750	-15.528890	-4.253171	 0.068246	-2.318989	 1.609464	-0.204678	-13.680680
 0.175406	-0.201723	 0.739606	-18.475370	 55.094800	 121.672100	-6.287756	 2.143024	 12.244250	-4.101166	 2.305084	-49.698550	-8.595636	 5.196407	-63.813600	-7.924437	 2.345639	-32.785930	-10.426310	-7.799456	-56.011990	 2.606440	-1.934969	-73.359370	-2.881304	 1.107404	-39.860250	-32.625130	-16.937430	-46.687990	 1.807360	-1.215074	-66.358050	 2.314035	-0.827462	-45.018490	-18.966010	-11.114220	-53.021560	 3.022164	-2.227843	-70.971260	 1.062585	-0.208233	-39.108100	 43.404500	 62.265920	-11.731840	-2.565689	 0.026675	-1.650114	 1.050131	-0.127686	-13.780650
 0.173991	-0.201679	 0.740873	-14.760500	 55.894120	 118.201400	-6.159210	 2.109569	 12.056750	-4.185269	 2.626575	-56.434890	-8.009696	 5.589696	-70.197120	-7.793740	 2.868833	-40.331780	-11.055010	-7.368820	-59.714830	 3.106677	-2.534608	-78.116860	 0.870309	-0.296504	-44.249910	-33.536590	-16.204570	-51.983850	 1.884566	-1.366260	-71.266920	 5.365959	-2.076103	-43.922650	-19.638490	-10.712770	-57.815730	 2.877928	-2.395077	-78.556470	 3.220819	-1.139131	-41.136970	 43.342900	 62.500530	-9.883875	-1.873158	 0.022885	-1.663906	 0.671570	-0.073238	-12.600120
 0.172384	-0.201873	 0.744186	-8.354918	 56.419480	 112.638400	-6.149738	 2.095788	 11.978600	-4.356486	 2.951706	-61.702960	-6.516180	 5.566420	-81.158150	-4.056859	 1.820617	-47.592710	-11.395760	-7.064524	-65.413460	 3.653569	-3.281063	-83.731630	 3.964858	-1.693567	-46.530610	-35.000030	-14.827490	-59.334580	 1.160898	-0.974253	-79.320850	 6.249079	-2.718884	-47.026990	-20.955550	-9.728354	-64.908330	 3.437667	-3.396747	-89.161520	 6.175622	-2.547213	-45.021630	 42.589550	 62.675300	-8.198231	-1.759780	 0.017148	-1.161627	 0.163207	-0.016773	-11.779280
 0.172235	-0.201281	 0.745860	-6.966159	 56.197140	 111.521600	-6.282542	 2.096593	 11.983330	-3.922873	 2.608195	-62.092810	-6.172594	 5.469818	-83.140710	-2.806772	 1.269332	-48.272680	-11.425490	-7.083894	-66.055020	 3.529284	-3.197311	-84.309120	 4.410945	-1.929779	-47.306670	-35.235260	-14.599240	-60.756280	 0.916720	-0.784679	-80.824900	 6.037240	-2.683526	-47.872300	-21.271380	-9.505001	-66.322040	 4.001109	-4.034470	-90.502480	 6.976880	-2.855658	-44.595090	 42.129800	 62.762550	-7.102390	-1.775511	 0.010092	-0.679074	 0.156387	-0.015646	-11.194580
 0.171586	-0.198081	 0.750471	-3.815496	 56.355250	 108.966000	-6.785218	 2.180291	 12.470370	-3.612180	 2.438692	-62.615880	-4.151621	 3.847381	-85.667940	-0.346280	 0.160606	-48.667900	-11.717690	-6.793768	-67.335910	 3.673620	-3.430119	-86.040710	 4.808681	-2.142191	-48.001780	-35.913460	-13.839760	-63.432710	-0.357677	 0.309754	-82.857670	 5.120546	-2.346847	-49.155570	-22.111580	-8.707110	-69.043210	 4.010221	-4.176258	-92.302930	 7.206691	-2.930516	-44.214730	 42.073110	 62.816030	-6.548805	-2.350670	 0.000242	-0.016295	-0.295601	 0.025887	-10.167320
 0.171300	-0.197588	 0.752751	-2.143720	 56.624300	 107.564100	-7.014483	 2.227952	 12.748060	-3.144232	 2.096999	-62.616850	-2.602106	 2.424965	-85.993870	 1.771369	-0.799613	-48.655350	-11.780470	-6.739705	-67.704280	 4.111063	-3.860953	-86.395950	 5.375718	-2.367593	-47.538460	-36.058300	-13.557340	-65.117070	-0.920890	 0.816784	-83.460280	 4.542345	-2.052665	-48.557650	-22.445030	-8.378992	-70.311140	 4.315794	-4.478534	-92.138020	 7.268177	-2.905752	-43.553120	 42.079110	 62.866040	-5.953312	-2.545489	-0.001704	 0.078387	-0.058305	 0.004802	-10.127590
 0.171079	-0.196034	 0.757421	 4.631324	 57.729290	 101.828600	-7.006312	 2.309386	 13.221620	-2.036619	 1.378070	-61.290180	-0.753848	 0.692972	-84.833050	 3.259629	-1.466623	-48.394740	-11.752040	-6.663987	-67.521690	 3.952005	-3.738976	-86.829070	 4.696496	-2.036806	-46.876040	-36.394180	-12.892810	-67.870780	-1.902233	 1.719770	-84.359140	 1.406878	-0.631952	-47.833000	-23.190980	-7.539620	-72.297940	 4.789803	-4.925426	-91.650450	 6.179887	-2.372364	-41.983180	 46.349560	 62.489910	-8.825945	-2.389710	-0.016592	 0.794165	-0.256594	 0.021717	-9.275702
 0.170464	-0.195085	 0.759917	 9.673812	 58.337340	 97.374450	-6.846628	 2.313283	 13.242750	-1.836423	 1.296928	-60.649030	 0.085209	-0.072910	-84.159730	 4.195594	-1.828782	-47.105060	-11.922490	-6.470559	-67.192160	 3.480160	-3.329279	-87.398740	 3.949367	-1.714496	-46.888780	-36.251530	-12.808120	-68.872270	-2.336810	 2.123993	-84.695590	 0.274877	-0.128728	-47.446080	-23.495210	-7.171340	-72.860210	 4.313428	-4.431109	-91.528660	 5.547621	-2.113380	-41.657950	 50.943660	 61.875610	-12.179130	-2.390760	-0.028562	 1.398854	-1.122242	 0.087780	-8.592340
 0.169108	-0.192713	 0.765976	 20.133350	 59.260540	 88.224120	-6.390243	 2.439945	 13.979010	-1.512422	 1.200831	-63.592090	 0.671227	-0.606471	-84.340160	 5.560543	-2.339520	-45.768780	-11.932640	-6.326587	-68.679120	 3.080992	-3.061624	-89.392070	 3.971043	-1.734864	-47.174860	-36.349820	-12.203670	-72.314010	-3.679042	 3.402120	-85.756940	-1.169051	 0.489062	-45.921570	-24.152360	-6.317962	-75.244280	 2.750232	-2.855600	-91.917900	 4.201136	-1.641065	-42.519730	 54.505230	 61.360150	-14.404250	-1.822833	-0.027643	 1.678265	-1.513813	 0.104630	-7.849802
 0.168307	-0.192001	 0.769119	 25.054050	 59.479880	 83.842240	-5.817883	 2.418555	 13.852460	-1.220962	 0.952981	-65.819870	 1.491625	-1.323119	-83.664730	 6.734238	-2.774992	-44.883150	-12.038030	-6.255761	-70.182680	 2.923857	-2.940334	-90.156550	 3.741129	-1.625365	-46.919050	-36.381580	-12.045340	-73.843340	-3.925517	 3.645518	-85.854140	-1.230860	 0.514680	-45.479280	-24.263530	-6.157012	-76.748140	 2.180896	-2.266679	-91.987920	 3.724973	-1.449006	-42.395920	 56.816270	 60.811550	-16.355560	-1.569822	-0.026961	 1.925629	-1.582093	 0.102629	-7.391744
 0.168131	-0.191851	 0.775515	 37.034100	 58.776260	 73.890410	-4.491603	 2.386045	 13.657360	-0.700923	 0.613156	-70.185970	 1.081202	-0.954716	-82.780760	 5.447527	-2.211748	-44.046900	-11.849470	-6.264942	-73.616940	 2.249059	-2.332473	-91.856040	 2.580756	-1.125053	-46.891300	-35.927280	-12.038360	-76.661810	-4.180943	 3.907613	-86.108220	-1.115816	 0.474974	-45.886430	-23.593800	-6.500882	-79.887180	 0.950407	-1.007016	-92.767600	 2.375156	-0.921799	-42.164470	 60.748200	 59.542500	-21.145400	-1.107582	-0.019523	 2.010036	-1.646220	 0.093711	-6.517777
 0.168636	-0.191958	 0.777667	 41.555200	 58.068580	 70.338840	-4.431262	 2.398467	 13.737510	-0.584111	 0.498162	-71.686760	 0.953209	-0.834173	-82.447690	 4.853640	-1.946974	-43.633820	-11.503690	-6.552230	-74.819530	 2.540288	-2.650991	-92.390330	 2.914557	-1.258757	-46.756320	-35.751510	-12.112090	-77.428390	-4.035873	 3.778377	-86.206050	-0.939951	 0.399382	-45.895620	-23.253830	-6.774467	-80.868990	 1.056544	-1.126518	-93.450710	 2.020432	-0.773105	-41.691800	 60.254660	 59.385460	-21.890920	-1.656947	-0.028293	 1.926155	-1.104945	 0.053771	-5.760989
 0.170107	-0.192947	 0.782954	 51.211540	 56.118760	 63.066910	-4.618917	 2.552529	 14.651790	-0.892788	 0.849591	-74.228530	 0.657971	-0.560513	-81.398670	 4.407722	-1.692524	-42.040050	-11.062740	-6.845079	-75.914500	 3.072249	-3.201199	-92.424060	 3.223271	-1.380089	-46.380730	-35.333110	-12.207890	-78.985950	-3.353172	 3.166799	-86.699350	-0.269987	 0.114631	-44.872600	-22.737150	-7.075246	-82.729850	 0.790331	-0.838002	-93.315890	 1.454204	-0.548684	-41.217380	 63.775360	 58.130730	-25.399050	-0.544860	-0.004290	 1.011354	-0.180279	 0.011351	-6.789049
 0.171023	-0.193428	 0.784645	 53.984420	 55.349520	 61.229790	-4.871144	 2.643717	 15.189060	-0.867814	 0.733190	-74.963290	 0.582574	-0.507507	-81.891930	 4.474086	-1.690574	-41.412980	-10.858450	-7.119094	-76.555530	 3.255178	-3.391692	-92.380510	 3.532197	-1.490896	-45.796460	-35.046960	-12.500850	-79.530970	-2.876900	 2.710288	-86.496350	 0.352180	-0.138160	-43.886410	-22.342050	-7.546928	-83.231610	 0.935005	-0.987759	-93.220610	 1.707168	-0.633760	-40.761160	 63.540790	 58.181470	-24.901740	-0.555298	-0.003729	 0.860500	 0.487748	-0.029288	-6.907444
 0.173046	-0.194334	 0.786886	 57.698190	 54.195120	 59.065860	-5.113372	 2.730747	 15.695380	-1.293109	 0.986220	-75.209660	-0.221256	 0.191234	-81.920690	 3.115684	-1.164541	-40.963410	-10.411090	-7.651557	-77.103760	 3.492045	-3.636375	-92.323360	 3.694744	-1.549558	-45.502870	-34.621640	-12.908570	-80.530600	-2.335214	 2.194874	-86.438480	 0.928899	-0.366968	-43.181850	-21.771090	-8.236915	-83.865200	 1.150337	-1.220780	-93.382280	 2.124027	-0.787092	-40.681570	 63.604830	 58.028880	-25.086390	-0.639987	-0.002574	 0.507955	 0.892521	-0.058382	-7.520780
